<?xml version="1.0" encoding="UTF-8" standalone="no"?>
<!DOCTYPE svg PUBLIC "-//W3C//DTD SVG 1.1//EN" "http://www.w3.org/Graphics/SVG/1.1/DTD/svg11.dtd">
<svg width="100%" height="100%" viewBox="0 0 56 60" version="1.1" xmlns="http://www.w3.org/2000/svg" xmlns:xlink="http://www.w3.org/1999/xlink" xml:space="preserve" xmlns:serif="http://www.serif.com/" style="fill-rule:evenodd;clip-rule:evenodd;stroke-linejoin:round;stroke-miterlimit:2;">
    <g transform="matrix(1,0,0,1,-178.606,-158.517)">
        <g transform="matrix(72,0,0,72,178.087,207.477)">
            <path d="M0.193,-0.51L0.33,-0.501C0.355,-0.559 0.388,-0.588 0.428,-0.588C0.435,-0.588 0.441,-0.585 0.443,-0.578L0.444,-0.574C0.411,-0.574 0.386,-0.551 0.367,-0.503C0.421,-0.512 0.459,-0.535 0.481,-0.572C0.489,-0.587 0.494,-0.599 0.494,-0.608C0.494,-0.629 0.486,-0.64 0.471,-0.64C0.474,-0.649 0.481,-0.654 0.49,-0.654C0.509,-0.654 0.518,-0.641 0.518,-0.616C0.518,-0.592 0.508,-0.567 0.488,-0.544C0.459,-0.509 0.417,-0.489 0.36,-0.483C0.348,-0.445 0.339,-0.397 0.331,-0.339C0.324,-0.282 0.319,-0.249 0.318,-0.242C0.339,-0.257 0.374,-0.281 0.423,-0.314C0.473,-0.347 0.505,-0.368 0.52,-0.378C0.544,-0.465 0.575,-0.537 0.613,-0.594C0.651,-0.651 0.691,-0.68 0.734,-0.68C0.748,-0.68 0.759,-0.675 0.768,-0.666C0.776,-0.657 0.78,-0.646 0.78,-0.631C0.78,-0.592 0.761,-0.553 0.724,-0.512C0.687,-0.471 0.635,-0.428 0.568,-0.381C0.544,-0.284 0.532,-0.191 0.532,-0.101C0.532,-0.021 0.543,0.039 0.566,0.078C0.585,0.109 0.609,0.125 0.64,0.125C0.637,0.135 0.629,0.141 0.618,0.141C0.582,0.141 0.553,0.126 0.531,0.098C0.498,0.055 0.482,-0.014 0.482,-0.109C0.482,-0.182 0.491,-0.26 0.51,-0.341C0.39,-0.261 0.325,-0.217 0.314,-0.21C0.298,-0.103 0.278,-0.03 0.253,0.009C0.229,0.045 0.198,0.063 0.162,0.063C0.145,0.063 0.131,0.057 0.121,0.046C0.111,0.034 0.106,0.018 0.106,-0.002C0.106,-0.055 0.157,-0.121 0.26,-0.199C0.283,-0.341 0.303,-0.435 0.322,-0.482L0.202,-0.49C0.138,-0.49 0.092,-0.466 0.064,-0.417C0.051,-0.392 0.044,-0.368 0.044,-0.343C0.044,-0.33 0.046,-0.318 0.049,-0.306C0.059,-0.268 0.079,-0.249 0.109,-0.249C0.109,-0.245 0.107,-0.241 0.103,-0.237C0.099,-0.233 0.094,-0.231 0.087,-0.231C0.053,-0.231 0.029,-0.249 0.016,-0.284C0.01,-0.299 0.007,-0.317 0.007,-0.337C0.007,-0.357 0.013,-0.379 0.024,-0.404C0.046,-0.454 0.083,-0.487 0.134,-0.502C0.153,-0.507 0.172,-0.51 0.193,-0.51ZM0.759,-0.632C0.759,-0.652 0.751,-0.662 0.734,-0.662C0.706,-0.662 0.678,-0.64 0.651,-0.595C0.623,-0.55 0.599,-0.491 0.579,-0.42C0.636,-0.462 0.681,-0.5 0.712,-0.534C0.743,-0.568 0.759,-0.601 0.759,-0.632ZM0.126,-0.001C0.126,0.029 0.138,0.043 0.16,0.043C0.183,0.043 0.201,0.025 0.215,-0.01C0.229,-0.046 0.242,-0.098 0.254,-0.167C0.169,-0.101 0.126,-0.046 0.126,-0.001Z" style="fill-rule:nonzero;"/>
        </g>
    </g>
</svg>
