<?xml version="1.0" encoding="UTF-8" standalone="no"?>
<!DOCTYPE svg PUBLIC "-//W3C//DTD SVG 1.1//EN" "http://www.w3.org/Graphics/SVG/1.1/DTD/svg11.dtd">
<svg width="100%" height="100%" viewBox="0 0 558 29" version="1.1" xmlns="http://www.w3.org/2000/svg" xmlns:xlink="http://www.w3.org/1999/xlink" xml:space="preserve" xmlns:serif="http://www.serif.com/" style="fill-rule:evenodd;clip-rule:evenodd;stroke-linejoin:round;stroke-miterlimit:2;">
    <g transform="matrix(1,0,0,1,-0.0204,0.012)">
        <g transform="matrix(1,0,0,1,-87.9748,-131.003)">
            <g transform="matrix(1,0,0,1,-21.7918,-1.42109e-14)">
                <g transform="matrix(72,0,0,72,107.627,159.071)">
                    <path d="M0.333,-0.386L0.333,-0.223L0.062,-0.223L0.062,-0.386L0.03,-0.386L0.03,-0L0.062,-0L0.062,-0.192L0.333,-0.192L0.333,-0L0.365,-0L0.365,-0.386L0.333,-0.386Z" style="fill:white;fill-rule:nonzero;"/>
                </g>
                <g transform="matrix(72,0,0,72,153.131,159.071)">
                    <path d="M0.03,-0L0.068,-0L0.189,-0.234L0.17,-0.27L0.03,-0ZM0.253,-0.338L0.23,-0.384L0.211,-0.348L0.391,0L0.429,0L0.253,-0.338Z" style="fill:white;fill-rule:nonzero;"/>
                </g>
                <g transform="matrix(72,0,0,72,203.603,159.071)">
                    <path d="M0.03,-0L0.062,-0L0.062,-0.209L0.03,-0.241L0.03,-0ZM0.299,-0.387L0.299,-0.099L0.03,-0.368L0.03,-0.323L0.085,-0.267L0.331,-0.022L0.331,-0.387L0.299,-0.387Z" style="fill:white;fill-rule:nonzero;"/>
                </g>
                <g transform="matrix(72,0,0,72,243.923,159.071)">
                    <path d="M0.134,-0.355L0.372,-0.355L0.372,-0.387L0.134,-0.387C0.097,-0.387 0.062,-0.367 0.043,-0.334C0.034,-0.318 0.03,-0.3 0.03,-0.282C0.03,-0.264 0.034,-0.246 0.043,-0.23C0.062,-0.198 0.097,-0.177 0.134,-0.177L0.264,-0.177C0.304,-0.177 0.336,-0.145 0.336,-0.105C0.336,-0.065 0.304,-0.032 0.264,-0.032L0.03,-0.032L0.03,-0L0.264,-0C0.301,-0 0.336,-0.02 0.355,-0.053C0.364,-0.068 0.368,-0.086 0.368,-0.105C0.368,-0.123 0.364,-0.141 0.355,-0.157C0.336,-0.189 0.301,-0.209 0.264,-0.209L0.134,-0.209C0.094,-0.209 0.062,-0.242 0.062,-0.282C0.062,-0.322 0.094,-0.355 0.134,-0.355Z" style="fill:white;fill-rule:nonzero;"/>
                </g>
                <g transform="matrix(72,0,0,72,290.219,159.071)">
                    <path d="M0.062,-0.192L0.328,-0.192L0.328,-0.224L0.062,-0.224L0.062,-0.297L0.03,-0.297L0.03,-0L0.368,-0L0.368,-0.032L0.062,-0.032L0.062,-0.192ZM0.368,-0.355L0.368,-0.387L0.03,-0.387L0.03,-0.355L0.368,-0.355Z" style="fill:white;fill-rule:nonzero;"/>
                </g>
                <g transform="matrix(72,0,0,72,333.851,159.071)">
                    <path d="M0.03,-0L0.062,-0L0.062,-0.209L0.03,-0.241L0.03,-0ZM0.299,-0.387L0.299,-0.099L0.03,-0.368L0.03,-0.323L0.085,-0.267L0.331,-0.022L0.331,-0.387L0.299,-0.387Z" style="fill:white;fill-rule:nonzero;"/>
                </g>
                <g transform="matrix(72,0,0,72,402.755,159.071)">
                    <path d="M0.062,-0.032L0.062,-0.39L0.03,-0.39L0.03,-0L0.324,-0L0.324,-0.032L0.062,-0.032Z" style="fill:white;fill-rule:nonzero;"/>
                </g>
                <g transform="matrix(72,0,0,72,443.579,159.071)">
                    <rect x="0.03" y="-0.387" width="0.032" height="0.387" style="fill:white;"/>
                </g>
                <g transform="matrix(72,0,0,72,468.059,159.071)">
                    <path d="M0.03,-0L0.063,-0L0.063,-0.22L0.03,-0.254L0.03,-0ZM0.388,-0.384L0.21,-0.206L0.03,-0.387L0.03,-0.339L0.088,-0.281L0.21,-0.158L0.245,-0.192L0.355,-0.303L0.355,0L0.388,0L0.388,-0.384Z" style="fill:white;fill-rule:nonzero;"/>
                </g>
                <g transform="matrix(72,0,0,72,513.779,159.071)">
                    <path d="M0.03,-0L0.068,-0L0.189,-0.234L0.17,-0.27L0.03,-0ZM0.253,-0.338L0.23,-0.384L0.211,-0.348L0.391,0L0.429,0L0.253,-0.338Z" style="fill:white;fill-rule:nonzero;"/>
                </g>
                <g transform="matrix(72,0,0,72,564.251,159.071)">
                    <path d="M0.03,-0L0.062,-0L0.062,-0.209L0.03,-0.241L0.03,-0ZM0.299,-0.387L0.299,-0.099L0.03,-0.368L0.03,-0.323L0.085,-0.267L0.331,-0.022L0.331,-0.387L0.299,-0.387Z" style="fill:white;fill-rule:nonzero;"/>
                </g>
                <g transform="matrix(72,0,0,72,603.347,159.071)">
                    <path d="M0.213,-0L0.213,-0.297L0.182,-0.297L0.182,-0L0.213,-0ZM0.372,-0.355L0.372,-0.387L0.03,-0.387L0.03,-0.355L0.372,-0.355Z" style="fill:white;fill-rule:nonzero;"/>
                </g>
                <g transform="matrix(72,0,0,72,636.899,159.071)">
                    <path d="M0.03,-0L0.068,-0L0.189,-0.234L0.17,-0.27L0.03,-0ZM0.253,-0.338L0.23,-0.384L0.211,-0.348L0.391,0L0.429,0L0.253,-0.338Z" style="fill:white;fill-rule:nonzero;"/>
                </g>
            </g>
        </g>
    </g>
</svg>
